<svg width="136" height="20" viewBox="0 0 136 20" fill="none" xmlns="http://www.w3.org/2000/svg">
    <path d="M12.9381 0.570435V10.7157L4.56376 0.570435H0.13266V19.6251H5.3805V9.46879L13.7844 19.6251H18.2155V0.570435H12.9381Z" fill="white"/>
    <path d="M34.9236 1.48801C34.5319 1.27341 34.118 1.08472 33.6893 0.921921C32.4032 0.433528 30.9988 0.189331 29.4762 0.189331C27.9536 0.189331 26.5456 0.433528 25.2595 0.921921C23.9734 1.41401 22.8573 2.1059 21.9149 3.00499C20.9725 3.90407 20.2334 4.95116 19.6975 6.14994C19.1653 7.34872 18.8955 8.6548 18.8955 10.0719C18.8955 11.489 19.1653 12.8246 19.6975 14.0308C20.2334 15.237 20.9725 16.2915 21.9149 17.1906C22.8573 18.0859 23.9771 18.7815 25.2743 19.2736C26.5677 19.762 27.9684 20.0062 29.4762 20.0062C30.9841 20.0062 32.4032 19.762 33.6893 19.2736C34.9754 18.7815 36.0952 18.0933 37.0486 17.2017C37.9984 16.3137 38.7376 15.2666 39.266 14.0567C39.4508 13.6275 39.606 13.1835 39.7243 12.7247L34.9236 1.48801ZM34.2215 12.3436C33.9554 13.0059 33.5932 13.5794 33.1312 14.0567C32.6693 14.5377 32.126 14.9077 31.5014 15.1593C30.8769 15.4146 30.2006 15.5404 29.4762 15.5404C28.7519 15.5404 28.0756 15.4146 27.4473 15.1593C26.8227 14.9077 26.2758 14.5377 25.8027 14.0567C25.3334 13.5794 24.9712 13.0059 24.7162 12.3436C24.4612 11.6814 24.3356 10.934 24.3356 10.0978C24.3356 9.26159 24.4612 8.5142 24.7162 7.85191C24.9712 7.18962 25.3334 6.61613 25.8027 6.13514C26.2758 5.65415 26.8227 5.28785 27.4473 5.03256C28.0756 4.78096 28.7482 4.65146 29.4762 4.65146C30.2043 4.65146 30.8769 4.78096 31.5014 5.03256C32.126 5.28785 32.6693 5.65415 33.1312 6.13514C33.5932 6.61613 33.9554 7.18962 34.2215 7.85191C34.4838 8.5142 34.6132 9.26159 34.6132 10.0978C34.6132 10.934 34.4838 11.6814 34.2215 12.3436Z" fill="white"/>
    <path d="M57.6852 0.570435L49.5252 19.6251H44.2219L40.0495 9.84249L37.1891 3.14559L36.0915 0.570435H41.8863L46.5539 11.7665L47.0676 12.9985L52.3524 0.570435H57.6852Z" fill="white"/>
    <path d="M64.6885 0.570435H59.3852L50.9813 19.6251H56.4768L57.9698 15.8956L59.5515 11.9478L61.9944 5.85395L64.4372 11.9478L66.0189 15.8956L67.5157 19.6251H69.3968V11.2115L64.6885 0.570435Z" fill="white"/>
    <path d="M75.9492 15.3517V0.570435H70.5646V19.6251H79.8814L81.7662 15.3517H75.9492Z" fill="#CC23AC"/>
    <path d="M99.6975 14.3786V19.6251H97.894L92.3727 5.85395L91.9662 6.87143L91.6336 7.70022L91.2271 6.67904L90.8945 5.85395L90.4879 6.87143L85.3768 19.6251H81.3596L83.2444 15.3517L89.7636 0.570435H93.5886L99.6975 14.3786Z" fill="#AE4090"/>
    <path d="M100.455 12.7506V19.6251H97.894L92.3727 5.85395L91.9662 6.87143L91.6336 7.70022L86.8551 19.6251H81.3596L83.2444 15.3517L89.7636 0.570435H95.0669L100.455 12.7506Z" fill="#CC23AC"/>
    <path d="M118.996 11.5963C118.442 10.8156 117.662 10.2199 116.657 9.81289C116.553 9.77219 116.45 9.73149 116.343 9.69449C117.104 9.2949 117.699 8.7769 118.139 8.13681C118.645 7.39313 118.9 6.53104 118.9 5.55056C118.9 4.08168 118.283 2.8829 117.049 1.95791C115.818 1.03293 113.941 0.570435 111.42 0.570435H101.741V19.6251H111.963C114.539 19.6251 116.494 19.1626 117.825 18.2377C119.159 17.3127 119.824 16.0325 119.824 14.3971C119.824 13.3093 119.547 12.3769 118.996 11.5963ZM107.045 4.46277H110.74C111.649 4.46277 112.329 4.61077 112.78 4.91046C113.235 5.21016 113.46 5.67635 113.46 6.31274C113.46 6.91213 113.235 7.36723 112.78 7.67432C112.329 7.98142 111.649 8.13681 110.74 8.13681H107.045V4.46277ZM113.678 15.2555C113.205 15.5737 112.499 15.7328 111.557 15.7328H107.045V11.8664H111.557C112.499 11.8664 113.205 12.0255 113.678 12.3436C114.151 12.6618 114.384 13.1465 114.384 13.8014C114.384 14.4563 114.151 14.9373 113.678 15.2555Z" fill="#CC23AC"/>
    <path d="M135.401 11.3632C135.002 10.7009 134.481 10.1644 133.838 9.75738C133.195 9.35039 132.493 9.02109 131.732 8.7769C130.97 8.5327 130.202 8.3292 129.433 8.16271C128.66 7.99991 127.958 7.84081 127.326 7.68911C126.691 7.53372 126.173 7.33392 125.774 7.08972C125.375 6.84553 125.175 6.50513 125.175 6.06854C125.175 5.77625 125.275 5.50615 125.475 5.25085C125.674 4.99555 126.003 4.78836 126.454 4.62556C126.909 4.46277 127.507 4.38137 128.25 4.38137C129.082 4.38137 129.947 4.49976 130.833 4.73286C131.72 4.96966 132.618 5.34335 133.524 5.85024L135.157 1.87651C134.233 1.31412 133.165 0.892322 131.961 0.611127C130.756 0.329931 129.529 0.189331 128.276 0.189331C126.41 0.189331 124.85 0.470529 123.601 1.03292C122.348 1.59531 121.413 2.339 120.8 3.26398C120.183 4.18897 119.876 5.21385 119.876 6.33863C119.876 7.35612 120.068 8.1997 120.46 8.87309C120.848 9.54278 121.361 10.0867 121.997 10.5048C122.629 10.9229 123.335 11.2596 124.115 11.5112C124.895 11.7664 125.663 11.9699 126.413 12.1253C127.167 12.2807 127.866 12.4435 128.509 12.6137C129.152 12.7876 129.673 12.9985 130.072 13.2427C130.471 13.4869 130.671 13.8199 130.671 14.2343C130.671 14.5636 130.564 14.8448 130.357 15.0779C130.15 15.3147 129.821 15.496 129.377 15.6255C128.934 15.7513 128.332 15.8142 127.57 15.8142C126.465 15.8142 125.353 15.6366 124.24 15.2851C123.124 14.9299 122.141 14.4822 121.288 13.9346L119.521 17.938C120.408 18.5373 121.572 19.0331 123.013 19.4216C124.455 19.8101 125.966 20.0062 127.544 20.0062C129.429 20.0062 130.996 19.725 132.249 19.1626C133.498 18.6002 134.437 17.8529 135.061 16.9168C135.686 15.9807 136 14.9632 136 13.8532C136 12.8579 135.8 12.0254 135.401 11.3632Z" fill="#CC23AC"/>
</svg>